<?xml version="1.0" standalone="no"?>
<!DOCTYPE svg PUBLIC "-//W3C//DTD SVG 20010904//EN"
 "http://www.w3.org/TR/2001/REC-SVG-20010904/DTD/svg10.dtd">
<svg version="1.0" xmlns="http://www.w3.org/2000/svg"
 width="1648.000000pt" height="1648.000000pt" viewBox="0 0 1648.000000 1648.000000"
 preserveAspectRatio="xMidYMid meet">
<metadata>
Created by potrace 1.11, written by Peter Selinger 2001-2013
</metadata>
<g transform="translate(0.000000,1648.000000) scale(0.100000,-0.100000)"
fill="#000000" stroke="none">
<path d="M0 8240 l0 -4800 4808 0 4807 0 0 2280 c0 1254 1 2280 3 2280 2 0 14
-26 28 -57 14 -32 42 -92 61 -133 19 -41 48 -104 65 -140 16 -36 45 -96 64
-135 96 -202 174 -373 174 -385 0 -6 5 -10 10 -10 6 0 10 -4 10 -9 0 -5 10
-31 22 -58 12 -26 21 -51 20 -55 -1 -5 2 -8 8 -8 5 0 10 -4 10 -10 0 -5 18
-49 41 -97 43 -93 59 -127 134 -288 46 -98 58 -124 145 -310 23 -49 57 -121
75 -160 18 -38 47 -101 65 -140 18 -38 48 -104 68 -145 20 -41 37 -77 38 -80
3 -16 19 -47 32 -62 8 -10 12 -18 8 -18 -4 0 2 -17 13 -37 11 -21 38 -78 61
-128 23 -49 55 -117 70 -150 16 -33 43 -91 60 -130 18 -38 59 -126 91 -194 33
-68 59 -125 59 -127 0 -1 23 -50 50 -108 28 -58 50 -110 50 -116 0 -5 5 -10
10 -10 6 0 10 -5 10 -10 0 -6 18 -50 41 -98 53 -114 63 -135 61 -144 -1 -5 3
-8 8 -8 6 0 10 -5 10 -11 0 -10 46 -111 116 -253 13 -28 24 -56 24 -63 0 -7 5
-13 10 -13 6 0 10 -9 10 -19 0 -11 5 -23 10 -26 6 -4 8 -11 5 -16 -4 -5 -2 -9
4 -9 5 0 13 -10 17 -22 4 -13 37 -87 74 -165 38 -78 66 -144 64 -146 -3 -2 2
-10 11 -17 8 -7 15 -17 15 -23 0 -6 23 -57 50 -114 l50 -103 28 14 c38 19 126
60 132 61 5 1 124 57 213 101 27 13 55 24 63 24 8 0 14 5 14 10 0 6 5 10 12
10 6 0 44 15 82 34 139 66 206 96 216 96 6 0 10 4 10 10 0 5 3 9 7 8 5 -1 40
13 78 31 77 36 133 61 182 82 18 8 33 17 33 21 0 5 6 8 14 8 8 0 36 11 63 24
26 13 84 41 128 61 44 21 105 49 135 63 30 14 57 26 60 27 8 2 137 63 213 101
37 18 67 30 67 27 0 -3 8 1 18 10 9 8 20 16 25 16 7 0 53 21 162 72 28 12 53
22 58 21 4 -1 7 2 7 7 0 5 10 12 23 16 12 4 24 8 27 9 3 1 39 18 81 38 42 21
107 51 145 68 137 63 200 92 247 116 27 13 55 24 62 24 7 0 18 7 25 15 6 8 15
14 18 13 4 -1 25 7 47 17 22 10 43 18 48 17 4 -1 7 2 7 7 0 5 14 12 30 16 17
4 30 11 30 16 0 5 7 9 14 9 8 0 34 10 58 23 24 12 73 36 111 51 37 16 67 32
67 36 0 4 7 7 15 7 13 0 108 42 145 64 27 16 95 44 103 41 4 -1 7 3 7 8 0 6 4
10 10 10 5 0 62 25 125 55 64 30 118 55 119 55 2 0 51 22 109 50 58 27 110 50
116 50 6 0 11 5 11 10 0 6 5 10 11 10 11 0 72 27 163 71 32 16 64 29 72 29 8
0 14 5 14 10 0 6 5 10 11 10 6 0 44 16 85 35 133 63 183 85 193 85 6 0 11 4
11 9 0 5 8 11 18 13 9 3 20 6 24 7 33 10 168 83 165 89 -2 4 -23 48 -46 97
-23 50 -55 117 -71 150 -70 146 -95 202 -105 233 -4 12 -12 22 -18 22 -6 0 -8
3 -5 6 4 3 -11 40 -31 82 -21 42 -51 106 -67 142 -15 36 -33 68 -39 72 -5 4
-6 8 -2 8 5 0 2 12 -6 28 -51 96 -77 152 -77 166 0 9 -4 16 -8 16 -8 0 -36 60
-33 73 0 4 -4 7 -11 7 -6 0 -9 3 -5 6 3 4 -4 25 -17 48 -12 22 -23 43 -23 46
0 3 -18 43 -40 90 -76 161 -97 205 -98 210 0 3 -19 43 -42 90 -22 47 -53 112
-68 145 -15 33 -45 96 -66 139 -22 44 -39 85 -39 91 0 7 -7 18 -15 25 -9 7
-14 15 -11 17 2 3 -18 49 -45 104 -27 54 -49 101 -49 103 0 3 -24 55 -53 118
-58 121 -70 148 -71 161 -1 4 -7 11 -14 16 -8 5 -13 10 -12 12 2 6 -18 58 -41
106 -11 23 -20 45 -19 49 1 4 -2 10 -7 13 -5 3 -24 40 -43 81 -18 41 -51 112
-72 157 -21 46 -38 87 -38 93 0 5 -4 10 -10 10 -5 0 -10 4 -10 10 0 11 -27 71
-112 250 -33 69 -61 130 -62 135 -1 6 -23 52 -49 103 -25 51 -47 96 -48 100
-1 4 -20 45 -42 92 -21 47 -55 119 -74 160 -19 41 -45 96 -58 122 -13 25 -21
48 -19 51 2 2 -2 10 -11 17 -8 7 -15 18 -15 24 0 7 -23 59 -52 117 -28 57 -51
110 -51 117 0 6 -4 12 -9 12 -4 0 -8 4 -8 10 0 5 -20 51 -45 103 -25 52 -45
100 -45 106 0 14 -4 14 -45 -3 -19 -8 -35 -12 -35 -8 0 4 -4 2 -8 -4 -8 -12
-94 -54 -111 -54 -6 0 -11 -4 -11 -10 0 -5 -9 -10 -20 -10 -11 0 -20 -5 -20
-12 0 -6 -3 -9 -6 -5 -4 3 -25 -4 -48 -15 -22 -12 -43 -23 -46 -23 -9 -3 -93
-41 -185 -86 -49 -24 -92 -44 -95 -44 -3 -1 -40 -18 -84 -38 -43 -20 -82 -37
-87 -37 -5 0 -9 -5 -9 -11 0 -5 -4 -8 -9 -4 -5 3 -15 0 -23 -7 -7 -7 -22 -15
-33 -16 -11 -2 -27 -10 -36 -18 -8 -8 -20 -14 -26 -14 -5 0 -32 -12 -59 -26
-27 -14 -50 -26 -51 -26 -4 2 -112 -47 -182 -82 -38 -19 -72 -32 -75 -28 -3 3
-6 0 -6 -6 0 -6 -10 -14 -22 -18 -13 -3 -45 -17 -73 -30 -27 -12 -61 -28 -75
-33 -14 -6 -32 -15 -40 -20 -8 -5 -37 -19 -65 -32 -69 -31 -176 -80 -265 -122
-205 -97 -236 -110 -242 -109 -5 1 -8 -2 -8 -8 0 -6 -3 -9 -7 -8 -10 2 -38
-10 -154 -66 -53 -25 -101 -46 -108 -46 -6 0 -11 -4 -11 -10 0 -5 -5 -10 -12
-10 -12 0 -35 -10 -173 -76 -44 -21 -82 -39 -85 -39 -3 -1 -30 -13 -60 -27
-178 -83 -240 -112 -282 -134 -27 -13 -51 -25 -55 -25 -5 -1 -46 -20 -93 -42
-47 -23 -87 -42 -90 -43 -3 0 -36 -15 -73 -32 -38 -18 -73 -32 -78 -32 -5 0
-9 -4 -9 -10 0 -5 -6 -10 -14 -10 -8 0 -36 -11 -63 -24 -60 -30 -174 -84 -273
-129 -41 -20 -106 -50 -145 -68 -38 -18 -72 -33 -75 -34 -3 0 -49 -22 -103
-48 -53 -26 -102 -47 -107 -47 -6 0 -10 -5 -10 -12 0 -6 -3 -8 -6 -5 -4 4 -23
-2 -43 -12 -20 -11 -65 -33 -101 -49 -36 -17 -103 -48 -151 -70 -47 -23 -91
-42 -99 -44 -12 -3 -14 362 -15 2497 l0 2500 -4808 3 -4807 2 0 -4800z"/>
</g>
</svg>
